<svg width="1920" height="1080" xmlns="http://www.w3.org/2000/svg">
    <g>
        <path transform="rotate(24 755.89 312.085)" stroke="#000" stroke-width="0" fill="#7AD6CD" opacity="undefined" d="m667.64843,266.08385c0,-9.0895 7.67482,-16.72774 16.80786,-16.72774l142.86677,0c9.13304,0 16.80786,7.63824 16.80786,16.72774l0,92.00257c0,9.0895 -7.67482,16.72774 -16.80786,16.72774l-142.86677,0c-9.13304,0 -16.80786,-7.63824 -16.80786,-16.72774l0,-46.00128l0,-23.00064l0,-11.50032l0,-5.75016l0,-2.87508l0,-1.43753c0,-0.47918 0,-0.95837 0,-1.43755z" id="svg_1">
            <animateMotion xmlns="http://www.w3.org/2000/svg" path="M 0 0 L 100 -50 Z" dur="5s" repeatCount="indefinite"/>
        </path>
        <path transform="rotate(-30 1587.79 541.18)" stroke="#000" stroke-width="0" id="svg_5" d="m1587.78592,633.2785c-83.07373,0 -150.36345,13.18719 -150.36345,-57.40364c0,-70.59083 67.28972,-127.7694 150.36345,-127.7694c83.07373,0 150.36345,57.17857 150.36345,127.7694c0,70.59083 -67.28972,57.40364 -150.36345,57.40364z" opacity="undefined" fill="#FFE7A2">
            <animateMotion xmlns="http://www.w3.org/2000/svg" path="M 0 0 L 100 50 Z" dur="6s" repeatCount="indefinite"/>
        </path>
        <path stroke="#000" stroke-width="0" id="svg_2" d="m283.44498,702.80498l0,0c0,-54.95231 45.89083,-99.49997 102.50001,-99.49997l0,0c27.1847,0 53.25598,10.483 72.47844,29.14285c19.2225,18.65989 30.02159,43.96809 30.02159,70.35712l0,0c0,54.95233 -45.89083,99.49999 -102.50003,99.49999l0,0l-102.50001,-99.49999zm51.25,0l0,0c0,27.47615 22.94542,49.75 51.25,49.75c28.3046,0 51.25,-22.27385 51.25,-49.75c0,-27.47615 -22.9454,-49.74998 -51.25,-49.74998l0,0c-28.30458,0 -51.25,22.27385 -51.25,49.74998z" fill="#8CD79F">
            <animateMotion xmlns="http://www.w3.org/2000/svg" path="M 0 0 L 80 380 Z" dur="6s" repeatCount="indefinite"/>
        </path>
        <path stroke="#000" id="svg_3" d="m-4.13501,309.05527c43.70512,0 79.16121,34.72196 79.16121,77.48098c0,42.75904 -35.45609,77.44759 -79.16121,77.44759c-43.70514,0 -79.16123,34.72199 -79.16123,77.481c0,42.75903 35.45609,77.44759 79.16123,77.44759c87.41024,0 158.35655,-69.41057 158.35655,-154.9286c0,-85.51805 -70.94632,-154.92857 -158.35655,-154.92857l0,0.00001zm0,53.26818c-13.66488,0 -24.74857,10.84371 -24.74857,24.2128c0,13.36911 11.08366,24.2128 24.74857,24.2128c13.6649,0 24.74853,-10.84371 24.74853,-24.2128c0,-13.36909 -11.08363,-24.2128 -24.74853,-24.2128zm0,154.9286c13.65783,0 24.74853,10.8506 24.74853,24.2128c0,13.36217 -11.0907,24.21283 -24.74853,24.21283c-13.65785,0 -24.74857,-10.85064 -24.74857,-24.21283c0,-13.36217 11.09072,-24.2128 24.74857,-24.2128zm154.80472,-53.16949c0,85.4545 -70.80733,154.72907 -158.15268,154.72907c-87.34531,0 -158.15268,-69.27457 -158.15268,-154.72907c0,-85.45453 70.80737,-154.72912 158.15268,-154.72912c87.34535,0 158.15268,69.27459 158.15268,154.72912z" stroke-width="0" fill="#A0D58A">
            <animateTransform xmlns="http://www.w3.org/2000/svg" attributeType="XML" attributeName="transform" begin="0s" dur="23s" type="rotate" from="0 30 460" to="360 30 460" repeatCount="indefinite"/>
        </path>
        <path id="svg_4" d="m974.37694,849.01728c-61.1092,-40.95378 -82.95817,-66.8604 -83.13525,-98.57479c-0.16148,-28.91156 26.80995,-56.81546 54.76108,-56.65455c13.95755,0.08051 43.89738,10.72155 54.49918,19.37005c5.34181,4.35761 7.87195,3.92791 19.76492,-3.35676c32.36764,-19.82576 63.97497,-20.24189 84.44527,-1.1117c32.71588,30.57407 26.7596,67.08509 -17.1223,104.95689c-23.33014,20.13484 -74.27805,55.85519 -79.66619,55.85519c-1.63954,0 -16.73555,-9.21796 -33.54671,-20.48432l0,0.00001z" stroke-width="0" stroke="#000" fill="#FFAC8D">
            <animateMotion xmlns="http://www.w3.org/2000/svg" path="M 0 0 L 100 -100 Z" dur="5s" repeatCount="indefinite"/>
        </path>
    </g>
</svg>
